<svg viewBox="0 0 85 50" height="50" width="85" xmlns="http://www.w3.org/2000/svg"><defs><style>.a{stroke:#fff;stroke-miterlimit:10;stroke-width:0.5px;}.b{fill:#e30613;}.c{fill:#ffd500;}.d{fill:#fff;}</style></defs><path d="M4.5619,34.2643c-.7579-5.7992,1.0872-9.862,5.0668-12.5636-4.4-5.6372-.9727-13.544,5.054-19.4007,0,0-3.7339,5.7575,1.7686,9.0662a5.5233,5.5233,0,0,0,7.4022-1.919s-1.572,4.0369,4.2581,7.6767c0,0,5.3715,3.8386,10.0222.4633,0,0,2.7842-1.0589,1.8016-6.0224,0,0,5.6218,11.9919-.1773,15.1357.2622,1.6872,5.4212,2.0925,5.1712-2.5548a14.1892,14.1892,0,0,1,2.221-7.577c-.2852-3.3948.1291-5.506,2.808-8.7277-.6152,2.2983-1.1789,3.4726.0575,6.05A5.7036,5.7036,0,0,1,52.88,12.73a8.7611,8.7611,0,0,0-1.8334,2.913c.4584.4965,1.7,2.7369,4.4469,1.6333,2.1934-1.16,3.4065-4.1226,3.1118-9.086.7881.7184,2.1951,1.9093,2.9643,2.6863a11.1851,11.1851,0,0,1,2.19,2.91,9.6375,9.6375,0,0,1,.5447,6.1172c.3278.6616,1.7032,3.4742,1.2121,6.088.0327.6286.0655,1.4229.9172,1.39,1.9-.1326,12.7577-.3063,14.8972,6.8825" class="a"></path><path d="M64.7623,28.573c-4.3563.4631-12.3807,1.4558-17.3261,3.1433-1.9656.3968-3.9633.6948-4.684-2.4817-1.2448.1981-3.3409.2978-4.3889-1.7867a4.1635,4.1635,0,0,1-2.3583-.1324c-1.0808,4.2684-8.8107,6.8491-16.5731,3.0774-6.9438-3.9376-7.2712-10.324,3.1443-11.6144-2.8168-.9928-8.7972.6189-10.166,5.0564a2.645,2.645,0,0,1-1.0315-.404,4.5842,4.5842,0,0,1-.9083-.7164c-2.9692,2.421-5.1267,5.3561-3.9417,11.55H79.37C78.1585,31.1867,75.407,27.911,64.7623,28.573Z" class="b"></path><path d="M61.9128,20.5652s2.8823,2.8788-.1966,6.8166A8.6205,8.6205,0,0,0,61.9128,20.5652Z" class="b"></path><path d="M25.1309,20.0689a13.9077,13.9077,0,0,0-7.4349,1.2574c-1.1463.8273-1.4084.3971-.9827,2.614.4913,1.919,1.54,4.2353,5.6664,5.6582,2.4892.761,9.4983,2.5479,12.2824-2.9447C34.6621,26.6538,27.9149,20.929,25.1309,20.0689Zm2.8661,9.5959a2.5976,2.5976,0,1,1,2.5709-2.5976A2.5845,2.5845,0,0,1,27.997,29.6648Z" class="c"></path><path d="M56.3129,28.6713a2.2964,2.2964,0,1,1,3.9089-1.0887c.5775-.3,2.5094-3.08.774-6.5541-.557.0991-3.7342,1.8861-7.73,6.0881A4.6906,4.6906,0,0,1,50.3183,28.97c-.524.0995-.7209,1.1251.491.8933S56.3129,28.6713,56.3129,28.6713Z" class="c"></path><path d="M57.5565,26.2234a.3929.3929,0,1,1-.393-.397A.3951.3951,0,0,1,57.5565,26.2234Z" class="d"></path><path d="M27.4893,26.29a.5733.5733,0,1,1-.5733-.5789A.576.576,0,0,1,27.4893,26.29Z" class="d"></path><path d="M74.4447,34.2848a1.4388,1.4388,0,0,0,.4473-1.709,1.5574,1.5574,0,0,0-2.1547-.2889,1.5905,1.5905,0,0,0-.8645,2.0153Z" class="d"></path><polygon points="10.247 38.555 8.916 49.597 5.931 49.597 7.263 38.555 3.67 38.555 4.034 36.138 37.543 36.138 37.17 38.555 10.247 38.555" class="d"></polygon><polygon points="24.585 49.598 27.217 49.598 28.435 39.676 25.542 39.676 24.957 44.44 22.12 39.676 19.192 39.676 17.973 49.598 20.863 49.598 21.523 44.25 24.585 49.598" class="d"></polygon><polygon points="11.085 49.593 12.298 39.679 18.029 39.679 17.709 42.254 14.876 42.256 14.756 43.264 17.282 43.262 16.982 45.732 14.458 45.734 14.299 46.958 17.138 46.962 16.811 49.593 11.085 49.593" class="d"></polygon><path d="M38.5868,43.7031v.5722c0,5.6593-4.8959,5.3231-4.8959,5.3231-5.207,0-4.871-5.0928-4.871-5.0928,0-5.4328,5.263-5.0932,5.263-5.0932a4.9059,4.9059,0,0,1,4.312,2.73l-2.41,1.2137a2.5324,2.5324,0,0,0-2.1312-1.3728s-2.0625-.0921-2.0625,2.536c0,0-.05,2.6139,1.99,2.6139A1.8679,1.8679,0,0,0,35.438,46.007H33.3862l.5892-2.3039Z" class="d"></path><polygon points="44.104 38.556 42.777 49.59 39.875 49.59 41.207 38.555 38.015 38.555 38.381 36.141 80.871 36.141 80.499 38.556 44.104 38.556" class="d"></polygon><path d="M47.3128,44.5012a2.3209,2.3209,0,1,1,2.32,2.3422A2.3658,2.3658,0,0,1,47.3128,44.5012Zm2.32,0,0,5.1988a5.199,5.199,0,1,0-5.1472-5.1988A5.1734,5.1734,0,0,0,49.6333,49.7Zm0-5.1988" class="d"></path><path d="M58.244,44.5012a2.3209,2.3209,0,1,1,2.3206,2.3422A2.3659,2.3659,0,0,1,58.244,44.5012Zm2.3206,0,0,5.1988a5.199,5.199,0,1,0-5.1472-5.1988A5.1733,5.1733,0,0,0,60.5646,49.7Zm0-5.1988" class="d"></path><polygon points="69.077 46.956 71.911 46.961 71.586 49.598 65.861 49.598 67.073 39.673 70.037 39.673 69.077 46.956" class="d"></polygon><path d="M76.5746,39.3559A3.0975,3.0975,0,0,0,73.47,42.3714a3.0606,3.0606,0,0,0,1.3135,2.4755c.29.2212,1.4063.8146,1.4063.8146a.7992.7992,0,0,1,.3781.6977.732.732,0,0,1-.8125.7135,4.9048,4.9048,0,0,1-1.9875-.95L72.4386,48.275a5.6591,5.6591,0,0,0,3.8538,1.33,3.2336,3.2336,0,0,0,3.2356-3.2189,3.3505,3.3505,0,0,0-1.52-2.7575s-1.169-.694-1.3688-.83a.5675.5675,0,0,1-.24-.5089c.1141-.7948,1.2245-.4594,2.3374.1691l1.2365-1.9219A4.3686,4.3686,0,0,0,76.5746,39.3559Z" class="d"></path></svg>